<?xml version="1.0" encoding="UTF-8"?>
<!DOCTYPE svg PUBLIC "-//W3C//DTD SVG 1.1//EN" "http://www.w3.org/Graphics/SVG/1.1/DTD/svg11.dtd">
<svg version="1.2" width="25.66mm" height="17.2mm" viewBox="0 0 2566 1720" preserveAspectRatio="xMidYMid" fill-rule="evenodd" stroke-width="28.222" stroke-linejoin="round" xmlns="http://www.w3.org/2000/svg" xmlns:ooo="http://xml.openoffice.org/svg/export" xmlns:xlink="http://www.w3.org/1999/xlink" xmlns:presentation="http://sun.com/xmlns/staroffice/presentation" xmlns:smil="http://www.w3.org/2001/SMIL20/" xmlns:anim="urn:oasis:names:tc:opendocument:xmlns:animation:1.0" xml:space="preserve">
 <defs class="ClipPathGroup">
  <clipPath id="presentation_clip_path" clipPathUnits="userSpaceOnUse">
   <rect x="0" y="0" width="2566" height="1720"/>
  </clipPath>
  <clipPath id="presentation_clip_path_shrink" clipPathUnits="userSpaceOnUse">
   <rect x="2" y="1" width="2561" height="1717"/>
  </clipPath>
 </defs>
 <defs class="TextShapeIndex">
  <g ooo:slide="id1" ooo:id-list="id3 id4 id5 id6 id7"/>
 </defs>
 <defs class="EmbeddedBulletChars">
  <g id="bullet-char-template-57356" transform="scale(0.00048828125,-0.00048828125)">
   <path d="M 580,1141 L 1163,571 580,0 -4,571 580,1141 Z"/>
  </g>
  <g id="bullet-char-template-57354" transform="scale(0.00048828125,-0.00048828125)">
   <path d="M 8,1128 L 1137,1128 1137,0 8,0 8,1128 Z"/>
  </g>
  <g id="bullet-char-template-10146" transform="scale(0.00048828125,-0.00048828125)">
   <path d="M 174,0 L 602,739 174,1481 1456,739 174,0 Z M 1358,739 L 309,1346 659,739 1358,739 Z"/>
  </g>
  <g id="bullet-char-template-10132" transform="scale(0.00048828125,-0.00048828125)">
   <path d="M 2015,739 L 1276,0 717,0 1260,543 174,543 174,936 1260,936 717,1481 1274,1481 2015,739 Z"/>
  </g>
  <g id="bullet-char-template-10007" transform="scale(0.00048828125,-0.00048828125)">
   <path d="M 0,-2 C -7,14 -16,27 -25,37 L 356,567 C 262,823 215,952 215,954 215,979 228,992 255,992 264,992 276,990 289,987 310,991 331,999 354,1012 L 381,999 492,748 772,1049 836,1024 860,1049 C 881,1039 901,1025 922,1006 886,937 835,863 770,784 769,783 710,716 594,584 L 774,223 C 774,196 753,168 711,139 L 727,119 C 717,90 699,76 672,76 641,76 570,178 457,381 L 164,-76 C 142,-110 111,-127 72,-127 30,-127 9,-110 8,-76 1,-67 -2,-52 -2,-32 -2,-23 -1,-13 0,-2 Z"/>
  </g>
  <g id="bullet-char-template-10004" transform="scale(0.00048828125,-0.00048828125)">
   <path d="M 285,-33 C 182,-33 111,30 74,156 52,228 41,333 41,471 41,549 55,616 82,672 116,743 169,778 240,778 293,778 328,747 346,684 L 369,508 C 377,444 397,411 428,410 L 1163,1116 C 1174,1127 1196,1133 1229,1133 1271,1133 1292,1118 1292,1087 L 1292,965 C 1292,929 1282,901 1262,881 L 442,47 C 390,-6 338,-33 285,-33 Z"/>
  </g>
  <g id="bullet-char-template-9679" transform="scale(0.00048828125,-0.00048828125)">
   <path d="M 813,0 C 632,0 489,54 383,161 276,268 223,411 223,592 223,773 276,916 383,1023 489,1130 632,1184 813,1184 992,1184 1136,1130 1245,1023 1353,916 1407,772 1407,592 1407,412 1353,268 1245,161 1136,54 992,0 813,0 Z"/>
  </g>
  <g id="bullet-char-template-8226" transform="scale(0.00048828125,-0.00048828125)">
   <path d="M 346,457 C 273,457 209,483 155,535 101,586 74,649 74,723 74,796 101,859 155,911 209,963 273,989 346,989 419,989 480,963 531,910 582,859 608,796 608,723 608,648 583,586 532,535 482,483 420,457 346,457 Z"/>
  </g>
  <g id="bullet-char-template-8211" transform="scale(0.00048828125,-0.00048828125)">
   <path d="M -4,459 L 1135,459 1135,606 -4,606 -4,459 Z"/>
  </g>
  <g id="bullet-char-template-61548" transform="scale(0.00048828125,-0.00048828125)">
   <path d="M 173,740 C 173,903 231,1043 346,1159 462,1274 601,1332 765,1332 928,1332 1067,1274 1183,1159 1299,1043 1357,903 1357,740 1357,577 1299,437 1183,322 1067,206 928,148 765,148 601,148 462,206 346,322 231,437 173,577 173,740 Z"/>
  </g>
 </defs>
 <g>
  <g id="id2" class="Master_Slide">
   <g id="bg-id2" class="Background"/>
   <g id="bo-id2" class="BackgroundObjects"/>
  </g>
 </g>
 <g class="SlideGroup">
  <g>
   <g id="container-id1">
    <g id="id1" class="Slide" clip-path="url(#presentation_clip_path)">
     <g class="Page">
      <g class="Group">
       <g class="com.sun.star.drawing.ClosedBezierShape">
        <g id="id3">
         <rect class="BoundingBox" stroke="none" fill="none" x="54" y="283" width="2436" height="1114"/>
         <path fill="rgb(255,128,0)" stroke="none" d="M 55,1063 C 55,988 68,919 94,857 119,793 156,738 202,693 248,647 304,611 367,585 431,559 501,546 578,546 608,546 635,547 658,549 681,551 702,554 721,559 740,562 757,567 772,572 787,577 802,583 816,590 L 743,759 C 725,751 702,744 674,738 646,731 614,728 578,728 532,728 491,735 453,750 414,765 381,786 353,814 324,842 302,875 286,916 271,956 263,1002 263,1054 263,1077 266,1098 271,1117 277,1136 287,1152 302,1166 317,1180 338,1191 365,1199 391,1207 424,1211 464,1211 508,1211 549,1207 586,1198 623,1189 651,1180 671,1171 L 691,1339 C 677,1346 663,1353 647,1360 631,1367 613,1373 592,1378 570,1383 545,1387 517,1390 489,1393 455,1394 416,1395 347,1395 290,1386 245,1369 199,1351 162,1327 134,1298 106,1268 86,1232 74,1191 61,1151 55,1108 55,1063 Z M 1898,1207 L 1917,1207 1935,1207 C 1999,1207 2053,1190 2097,1156 2141,1122 2176,1078 2203,1026 2230,974 2250,918 2262,856 2274,793 2280,734 2280,680 2280,652 2278,626 2273,602 2269,578 2261,557 2250,539 2239,521 2223,507 2203,498 2183,488 2158,483 2126,483 2106,483 2086,485 2066,489 L 1898,1207 Z M 2488,672 C 2488,764 2478,853 2456,939 2435,1026 2401,1102 2354,1169 2307,1236 2246,1289 2172,1330 2098,1370 2008,1390 1903,1391 1867,1391 1827,1389 1781,1385 1735,1381 1692,1374 1653,1366 L 1898,326 C 1947,316 1989,309 2023,305 2057,302 2092,300 2128,300 2239,299 2328,331 2392,396 2457,460 2488,553 2488,672 Z M 1745,284 L 1496,1352 1288,1352 1400,885 1125,886 1014,1353 808,1354 1058,286 1264,285 1165,711 1441,711 1539,285 1745,284 Z"/>
        </g>
       </g>
       <g class="com.sun.star.drawing.ClosedBezierShape">
        <g id="id4">
         <rect class="BoundingBox" stroke="none" fill="none" x="42" y="533" width="791" height="876"/>
         <path fill="rgb(255,128,0)" stroke="none" d="M 82,852 C 108,786 146,730 193,684 240,637 298,600 362,573 L 362,573 362,573 C 428,547 499,533 578,533 608,533 636,534 659,536 682,538 704,541 723,546 743,550 760,555 776,560 791,565 807,571 821,578 L 832,584 827,595 754,764 749,775 738,770 C 720,762 698,756 671,750 L 671,750 671,750 C 644,743 613,740 578,740 533,740 494,747 457,761 421,776 388,796 362,822 L 362,822 362,823 C 348,836 336,851 325,867 314,883 305,901 298,921 283,960 275,1004 275,1054 275,1076 278,1096 283,1114 286,1122 289,1130 294,1137 298,1144 304,1151 310,1157 317,1163 325,1169 335,1174 345,1179 356,1184 368,1187 L 368,1187 369,1187 C 381,1191 395,1194 411,1196 427,1198 444,1199 464,1199 507,1199 547,1195 583,1186 601,1182 617,1177 631,1173 644,1169 656,1164 666,1160 L 681,1153 683,1170 703,1338 704,1346 696,1350 C 682,1357 668,1365 652,1372 635,1379 616,1385 595,1390 L 595,1390 595,1390 C 572,1395 547,1400 518,1403 490,1406 456,1407 416,1408 L 416,1408 416,1408 C 345,1408 287,1398 240,1381 L 240,1381 240,1381 C 217,1372 195,1361 176,1348 157,1336 140,1322 125,1307 L 125,1307 125,1307 C 110,1291 98,1274 87,1255 77,1236 68,1216 62,1195 49,1154 42,1110 42,1063 42,987 56,916 82,852 Z M 638,1197 C 624,1201 608,1206 589,1210 551,1220 509,1224 464,1224 443,1224 425,1223 408,1221 390,1219 375,1215 361,1211 347,1207 334,1202 323,1196 312,1190 302,1183 293,1175 285,1168 278,1159 272,1150 267,1141 262,1132 259,1121 L 259,1121 259,1121 C 254,1101 250,1079 250,1054 250,1001 259,953 274,912 L 274,912 274,912 C 283,891 292,871 304,853 316,835 329,819 344,805 373,775 408,754 448,738 488,722 530,715 578,715 615,715 648,718 677,725 700,730 720,736 736,742 L 799,596 C 789,591 778,587 768,584 753,579 737,574 719,571 L 718,571 718,571 C 699,566 679,563 657,561 634,559 607,558 578,558 503,558 434,571 372,596 310,622 256,657 211,701 166,746 130,799 106,861 L 106,861 106,861 C 80,923 67,990 67,1063 67,1107 73,1149 86,1187 L 86,1188 86,1188 C 92,1207 99,1226 109,1243 118,1260 130,1275 143,1290 156,1303 172,1316 189,1327 207,1339 227,1349 249,1358 293,1374 349,1383 416,1383 454,1382 488,1381 515,1378 543,1375 567,1371 589,1366 609,1361 626,1355 642,1349 655,1343 666,1338 677,1332 L 660,1189 C 654,1192 646,1194 638,1197 Z M 82,852 L 94,857 82,852 C 82,852 82,852 82,852 82,852 82,852 82,852 Z M 62,1195 L 74,1191 62,1195 C 62,1195 62,1195 62,1195 62,1195 62,1195 62,1195 Z"/>
        </g>
       </g>
       <g class="com.sun.star.drawing.ClosedBezierShape">
        <g id="id5">
         <rect class="BoundingBox" stroke="none" fill="none" x="1882" y="470" width="412" height="751"/>
         <path fill="rgb(255,128,0)" stroke="none" d="M 1886,1204 L 2054,486 2056,478 2064,476 C 2085,472 2105,470 2126,470 2143,470 2158,472 2172,474 2185,477 2198,481 2209,486 2220,492 2229,498 2238,506 2247,513 2255,522 2261,532 2273,551 2281,574 2285,599 2291,624 2293,651 2293,680 2293,734 2287,795 2274,858 2262,922 2242,979 2214,1032 2200,1059 2184,1084 2166,1106 2148,1128 2128,1149 2105,1166 2082,1184 2056,1198 2027,1206 1999,1215 1969,1220 1935,1220 L 1917,1220 1898,1220 1883,1220 1886,1204 Z M 1917,1195 L 1935,1195 C 1966,1195 1994,1191 2020,1183 2046,1175 2069,1163 2090,1146 2111,1130 2130,1111 2147,1090 2164,1069 2179,1046 2192,1021 2218,970 2238,914 2250,853 2262,792 2268,733 2268,680 2268,653 2266,627 2261,604 L 2261,604 2261,604 C 2257,581 2250,562 2239,545 2235,537 2229,530 2222,524 2215,518 2207,513 2198,509 2189,505 2178,501 2167,499 2155,496 2141,495 2126,495 2110,495 2093,497 2077,500 L 1914,1195 1917,1195 Z"/>
        </g>
       </g>
       <g class="com.sun.star.drawing.ClosedBezierShape">
        <g id="id6">
         <rect class="BoundingBox" stroke="none" fill="none" x="1638" y="287" width="864" height="1118"/>
         <path fill="rgb(255,128,0)" stroke="none" d="M 2468,942 C 2446,1030 2412,1108 2364,1176 2340,1211 2313,1242 2281,1269 2250,1296 2216,1320 2178,1341 L 2178,1341 2178,1341 C 2140,1362 2098,1377 2052,1388 2006,1398 1957,1403 1903,1404 L 1903,1404 1903,1404 C 1867,1404 1827,1402 1780,1398 1734,1394 1690,1387 1651,1378 L 1638,1376 1641,1363 1886,323 1888,315 1896,314 C 1945,303 1987,296 2022,292 L 2022,292 2022,292 C 2056,289 2092,288 2128,287 2129,287 2131,287 2132,287 2188,287 2239,296 2283,312 2306,320 2327,331 2347,343 2366,356 2384,370 2401,387 2418,404 2432,422 2445,443 2457,463 2468,485 2476,509 2492,556 2501,611 2501,672 2501,765 2490,855 2468,942 Z M 2128,312 C 2093,313 2058,314 2024,317 1993,321 1954,327 1909,336 L 1668,1356 C 1704,1363 1742,1369 1782,1373 1828,1377 1868,1379 1903,1379 1955,1378 2003,1373 2047,1363 2090,1353 2130,1339 2166,1319 2202,1299 2235,1276 2265,1250 2295,1224 2321,1195 2344,1162 2390,1096 2423,1021 2444,936 2465,851 2476,763 2476,672 2476,614 2468,562 2452,517 2445,495 2435,475 2424,456 2412,437 2399,420 2383,405 2368,389 2351,376 2333,364 2315,353 2296,343 2275,336 2233,320 2185,312 2132,312 2131,312 2129,312 2128,312 Z"/>
        </g>
       </g>
       <g class="com.sun.star.drawing.PolyPolygonShape">
        <g id="id7">
         <rect class="BoundingBox" stroke="none" fill="none" x="791" y="271" width="972" height="1097"/>
         <path fill="rgb(255,128,0)" stroke="none" d="M 1757,287 L 1509,1355 1506,1365 1496,1365 1288,1365 1273,1365 1276,1349 1385,898 1134,899 1026,1356 1023,1366 1014,1366 808,1367 792,1367 796,1351 1045,283 1048,273 1058,273 1263,272 1279,272 1276,288 1180,698 1431,698 1527,282 1529,272 1539,272 1745,271 1761,271 1757,287 Z M 823,1342 L 1004,1341 1112,884 1115,874 1125,874 1400,873 1416,873 1413,888 1304,1340 1486,1340 1730,296 1549,297 1454,713 1451,723 1441,723 1165,723 1149,723 1152,708 1248,297 1068,298 823,1342 Z"/>
        </g>
       </g>
      </g>
     </g>
    </g>
   </g>
  </g>
 </g>
</svg>